HIERARCHY
ROOT Hips
{
	OFFSET -3.958830 18.904000 13.208200
	CHANNELS 6 Xposition Yposition Zposition Zrotation Yrotation Xrotation 
	JOINT LHipJoint
	{
		OFFSET 0.000000 0.000000 0.000000
		CHANNELS 3 Zrotation Yrotation Xrotation
		JOINT LeftUpLeg
		{
			OFFSET 1.800000 -1.400000 0.085000
			CHANNELS 3 Zrotation Yrotation Xrotation
			JOINT LeftLeg
			{
				OFFSET 2.215000 -6.000000 0.000000
				CHANNELS 3 Zrotation Yrotation Xrotation
				JOINT LeftFoot
				{
					OFFSET 2.500000 -6.900000 0.000000
					CHANNELS 3 Zrotation Yrotation Xrotation
					JOINT LeftToeBase
					{
						OFFSET 0.200000 -0.500000 1.950000
						CHANNELS 3 Zrotation Yrotation Xrotation
						End Site
						{
							OFFSET 0.000000 0.000000 0.000000
						}
					}
				}
			}
		}
	}
	JOINT RHipJoint
	{
		OFFSET 0.000000 0.000000 0.000000
		CHANNELS 3 Zrotation Yrotation Xrotation
		JOINT RightUpLeg
		{
			OFFSET -1.800000 -1.400000 0.085000
			CHANNELS 3 Zrotation Yrotation Xrotation
			JOINT RightLeg
			{
				OFFSET -2.215000 -6.000000 0.000000
				CHANNELS 3 Zrotation Yrotation Xrotation
				JOINT RightFoot
				{
					OFFSET -2.500000 -6.900000 0.000000
					CHANNELS 3 Zrotation Yrotation Xrotation
					JOINT RightToeBase
					{
						OFFSET -0.200000 -0.500000 1.950000
						CHANNELS 3 Zrotation Yrotation Xrotation
						End Site
						{
							OFFSET 0.000000 0.000000 0.000000
						}
					}
				}
			}
		}
	}
	JOINT LowerBack
	{
		OFFSET 0.000000 0.000000 0.000000
		CHANNELS 3 Zrotation Yrotation Xrotation
		JOINT Spine
		{
			OFFSET -0.087000 1.940000 -0.288900
			CHANNELS 3 Zrotation Yrotation Xrotation
			JOINT Spine1
			{
				OFFSET 0.000000 1.950000 0.060000
				CHANNELS 3 Zrotation Yrotation Xrotation
				JOINT Neck
				{
					OFFSET 0.000000 0.000000 0.000000
					CHANNELS 3 Zrotation Yrotation Xrotation
					JOINT Neck1
					{
						OFFSET 0.000000 1.600000 0.340000
						CHANNELS 3 Zrotation Yrotation Xrotation
						JOINT Head
						{
							OFFSET 0.000000 1.667000 -0.240000
							CHANNELS 3 Zrotation Yrotation Xrotation
							End Site
							{
								OFFSET 0.000000 0.000000 0.000000
							}
						}
					}
				}
				JOINT LeftShoulder
				{
					OFFSET 0.000000 0.000000 0.000000
					CHANNELS 3 Zrotation Yrotation Xrotation
					JOINT LeftArm
					{
						OFFSET 2.700000 1.550000 -0.730000
						CHANNELS 3 Zrotation Yrotation Xrotation
						JOINT LeftForeArm
						{
							OFFSET 5.450000 0.000000 0.000000
							CHANNELS 3 Zrotation Yrotation Xrotation
							JOINT LeftHand
							{
								OFFSET 3.450000 0.000000 0.000000
								CHANNELS 3 Zrotation Yrotation Xrotation
								JOINT LeftHandIndex1
								{
									OFFSET 0.750000 0.000000 0.000000
									CHANNELS 3 Zrotation Yrotation Xrotation
									End Site
									{
										OFFSET 0.000000 0.000000 0.000000
									}
								}
							}
						}
					}
				}
				JOINT RightShoulder
				{
					OFFSET 0.000000 0.000000 0.000000
					CHANNELS 3 Zrotation Yrotation Xrotation
					JOINT RightArm
					{
						OFFSET -2.700000 1.550000 -0.730000
						CHANNELS 3 Zrotation Yrotation Xrotation
						JOINT RightForeArm
						{
							OFFSET -5.450000 0.000000 0.000000
							CHANNELS 3 Zrotation Yrotation Xrotation
							JOINT RightHand
							{
								OFFSET -3.450000 0.000000 0.000000
								CHANNELS 3 Zrotation Yrotation Xrotation
								JOINT RightHandIndex1
								{
									OFFSET -0.750000 0.000000 0.000000
									CHANNELS 3 Zrotation Yrotation Xrotation
									End Site
									{
										OFFSET 0.000000 0.000000 0.000000
									}
								}
							}
						}
					}
				}
			}
		}
	}
}
MOTION
Frames: 10
Frame Time: 0.016667
0.768090 16.528300 -2.550870 1.424451 -9.407501 14.430789 -15.588527 11.385936 5.264794 3.126127 -12.114444 -41.621756 -12.362825 15.043409 49.699018 0.363921 10.356916 0.924956 0.031330 -0.411700 0.253710 18.275168 -7.787891 4.396169 -2.500455 9.755626 -47.631075 9.262847 -3.002214 9.697064 0.228277 -1.221408 3.896632 -0.157570 0.309050 0.208990 -3.059752 -3.418809 -9.411473 7.778976 -2.316207 32.109603 -0.065425 1.330489 -5.237910 1.379980 -6.790021 -7.254431 -14.673452 8.233972 34.253086 -12.583340 8.552890 -11.576310 -31.962477 -7.196479 0.318902 -37.377409 0.981026 -9.196085 -8.912057 -29.106704 -0.551379 -3.909820 2.793766 0.659290 0.176960 -0.128150 -0.085090 29.217306 13.708852 3.941382 44.550676 4.755611 -7.861365 7.238199 14.677416 -0.332856 2.171666 -0.991587 -0.400550 0.267500 0.339970 -0.364320 
0.855500 16.394410 -2.588980 1.169839 -8.577569 15.698326 -15.504930 11.170225 5.201873 2.652595 -11.970841 -42.473423 -10.858102 14.475480 50.327426 0.295089 10.281629 0.943317 0.033890 -0.397740 0.250120 18.399184 -7.669545 4.668296 -3.928305 10.637890 -50.674097 9.270228 -3.179877 11.340056 0.225560 -1.329236 3.844589 -0.129280 0.322880 0.201580 -3.370832 -3.058755 -9.438849 11.057978 -3.656264 31.018345 -1.775633 0.899775 -4.824231 1.672415 -7.421788 -7.356873 -15.431338 8.566427 33.342929 -13.272080 8.576250 -11.693080 -33.720020 -8.279030 0.566374 -37.305742 0.319609 -7.642302 -2.425382 -22.821234 -1.687260 -3.966376 2.716725 0.646070 0.196220 -0.144140 -0.087390 30.042221 15.049634 3.809981 43.551679 7.301203 -6.627770 4.749415 12.984420 -0.468681 2.179892 -0.987833 -0.416530 0.286840 0.349190 -0.366910 
0.952490 16.279920 -2.624720 1.006533 -7.155936 16.847562 -15.420246 10.804279 5.096684 1.682978 -12.013477 -43.555172 -8.507109 13.681186 51.583322 0.276618 10.203451 0.987240 0.063010 -0.355990 0.276180 18.569016 -7.391224 5.167725 -8.253084 11.626095 -56.409579 10.722845 -4.574731 18.302880 0.114329 -2.164676 3.516548 -0.093660 0.325600 0.193690 -3.748411 -2.618698 -9.515202 14.926292 -5.044195 28.933721 -3.372789 0.441394 -3.179324 2.145783 -7.901016 -7.911762 -15.918344 8.476869 32.829818 -14.225510 8.519890 -10.534990 -34.880719 -10.190569 1.355147 -37.508414 -0.322048 -5.920782 2.445571 -16.542515 -1.977599 -4.017988 2.688351 0.603260 0.217130 -0.155270 -0.068290 29.949771 17.245978 4.071846 42.430424 9.926661 -5.513890 1.948786 11.984327 -0.655366 2.199878 -1.038205 -0.412190 0.289490 0.314110 -0.360640 
1.046480 16.205890 -2.645020 1.579546 -4.633363 15.161100 -15.358961 10.656496 4.801593 -0.361962 -12.106120 -41.654707 -5.995413 12.669075 53.017386 0.283209 10.032236 1.033063 0.173060 -0.209520 0.358630 18.701573 -7.105811 5.671156 -15.593360 11.105374 -61.332135 14.107091 -8.299961 29.958965 -0.272811 -4.370067 2.697671 -0.029700 0.231700 0.172980 -4.000984 -2.566334 -9.574198 18.031059 -7.418781 29.130841 -5.107617 -0.946211 -0.491587 3.007519 -8.849401 -9.567053 -18.225677 9.100082 34.325835 -14.927360 7.760840 -12.311190 -35.106937 -13.726852 2.964554 -37.316902 -0.636190 -4.063101 5.278468 -9.748257 -1.633073 -3.966184 2.661272 0.625510 0.146290 -0.077440 -0.048020 28.499784 21.250535 5.005295 41.692554 12.761228 -5.122402 -0.963195 12.870436 -0.897448 2.206433 -1.057006 -0.363260 0.302790 0.237210 -0.354730 
1.144730 16.141980 -2.628660 2.242306 -2.472362 12.055974 -15.302788 10.614718 4.421753 -2.160753 -11.781455 -38.142378 -5.149229 12.658457 54.449647 0.363303 10.138560 0.984952 0.299720 -0.052100 0.438070 18.811845 -6.925045 6.012325 -22.577300 9.641878 -63.336520 17.839657 -13.419153 40.540802 -0.807993 -7.015342 1.770449 0.036230 0.128140 0.174040 -4.205569 -2.591988 -9.604859 20.773663 -10.154906 29.643766 -7.712294 -2.766704 2.808279 4.251821 -9.730550 -11.689719 -21.124663 10.087721 36.807272 -15.090770 6.334940 -14.310620 -34.724126 -17.620932 4.970681 -36.935210 -0.057927 -2.422333 7.777875 -2.985305 -1.018619 -3.903892 2.660491 0.670450 0.056590 0.023650 -0.021910 25.844978 25.559798 5.952225 41.667218 15.921119 -5.047170 -3.948836 14.712968 -1.310566 2.189920 -1.080193 -0.299100 0.311590 0.165160 -0.340760 
1.230240 16.066790 -2.577760 2.412084 -0.104642 8.503485 -15.249450 10.645230 4.052467 -2.884376 -11.020604 -34.814677 -4.583904 13.255535 56.656531 0.494120 10.562868 0.837665 0.354120 0.012150 0.454780 18.899451 -6.877951 6.142546 -27.890427 8.276713 -62.555872 20.172491 -19.228829 50.437999 -1.359285 -9.551701 0.969844 0.060540 0.078760 0.174690 -4.369276 -2.620927 -9.569766 23.863927 -12.605696 29.481464 -10.064547 -4.495662 5.018188 5.227187 -10.346885 -13.186308 -23.849163 11.437377 39.471849 -14.665480 5.007980 -14.176340 -34.121685 -19.795707 6.550437 -36.587508 1.684925 -1.510071 8.228592 1.577715 -0.522757 -3.874068 2.669198 0.688410 0.008870 0.060540 -0.018670 23.452478 27.884791 6.376903 41.004902 18.413703 -5.187646 -6.042674 17.475055 -1.803568 2.152982 -1.087759 -0.259440 0.306090 0.148810 -0.327150 
1.297750 16.017670 -2.501610 2.666247 2.276746 4.743347 -15.206042 10.788792 3.717114 -3.788377 -10.104449 -31.350197 -3.062892 13.423240 59.397575 0.662287 10.970642 0.702782 0.401080 0.066690 0.459570 18.947494 -6.969047 6.099638 -31.115487 7.480927 -60.135957 19.539446 -24.445246 60.667902 -1.893866 -11.741875 0.331658 0.074560 0.026050 0.187680 -4.465068 -2.680393 -9.476475 26.386736 -14.383230 28.888660 -11.943178 -6.220957 6.324947 5.891324 -10.676880 -13.982493 -26.122975 12.902195 42.480354 -14.217030 3.815610 -12.911120 -34.669088 -20.551199 7.661599 -34.774359 4.025587 -1.166303 7.765992 3.219048 -0.375611 -3.809128 2.729865 0.675960 -0.032290 0.085840 -0.013840 22.706953 28.545335 6.340848 39.574946 20.153633 -5.483233 -7.504112 20.543072 -2.320366 2.138486 -1.116156 -0.201820 0.258130 0.125460 -0.304570 
1.328570 15.984540 -2.383390 1.843990 3.008573 1.013319 -15.124607 11.074226 3.279965 -2.642819 -7.956342 -27.459952 -2.481031 14.469820 61.145124 0.817535 11.418289 0.569534 0.433890 0.086400 0.480430 18.978294 -7.274733 5.972637 -31.478891 8.868053 -56.898993 17.036038 -27.934828 70.593482 -2.362019 -13.453506 -0.096839 0.078220 -0.015490 0.171600 -4.615661 -2.497083 -9.256694 29.410660 -14.987039 27.625021 -13.650751 -7.093591 6.767230 6.257767 -11.011110 -13.853848 -28.194447 14.285661 45.767540 -14.096550 2.559070 -11.372120 -35.322546 -19.240600 7.994551 -32.766346 6.423226 -1.148930 8.084358 2.788492 -0.369285 -3.727516 2.764198 0.670870 -0.071370 0.091620 -0.009330 22.542431 27.247554 5.898037 39.437200 21.123417 -6.132598 -8.317980 24.967180 -2.925227 2.113142 -1.122452 -0.176650 0.236880 0.098200 -0.298120 
1.327750 15.919970 -2.279060 1.693525 2.801229 -1.490732 -15.029507 11.173958 2.969575 -1.861429 -5.933487 -25.047428 -2.056833 15.922905 63.142742 1.067807 11.957027 0.470216 0.423480 0.101450 0.415710 19.037197 -7.607586 5.846387 -30.621238 11.056098 -54.600490 12.396067 -29.153989 80.791971 -2.740271 -14.834013 -0.357955 0.069310 0.038020 0.146970 -4.840809 -1.998625 -9.080150 31.135425 -13.413297 25.513274 -14.280342 -6.784672 6.582604 5.724544 -11.035416 -12.865107 -28.699995 14.920368 48.204411 -12.722050 1.459490 -8.312520 -33.215966 -16.350775 7.464841 -32.112801 6.484352 -1.321658 7.847219 0.240109 -0.496816 -3.691177 2.798251 0.604290 -0.049100 0.056580 0.045420 21.427454 24.090022 5.266068 41.677972 21.381786 -7.188035 -9.604314 31.859530 -4.098113 2.058336 -1.152350 -0.157160 0.246520 0.068540 -0.240790 
1.333450 15.840690 -2.148360 2.226575 3.449442 -3.889101 -14.943830 11.331280 2.769901 -1.459759 -4.375217 -21.902091 -2.064430 17.189081 64.422730 1.224075 12.456121 0.361288 0.339340 -0.030790 0.361710 19.060389 -8.067365 5.516885 -29.419570 12.327150 -50.057270 8.131812 -29.156936 88.418503 -2.936163 -15.655962 -0.528587 0.008430 0.095170 0.156900 -5.008749 -1.584950 -8.868204 31.306397 -11.570766 22.794754 -14.202639 -6.826872 6.572060 5.036678 -10.641562 -11.746876 -27.481060 14.596409 50.422415 -12.617400 1.008450 -4.903370 -29.201139 -12.738894 6.747221 -32.388548 6.162260 -1.639482 5.549475 -3.804657 -0.791215 -3.718250 2.805782 0.580670 -0.003740 -0.009580 0.029860 18.741083 19.893683 4.538772 45.092452 21.812370 -7.705383 -8.481921 40.328390 -4.659927 1.994243 -1.157917 -0.189440 0.221640 0.118400 -0.246950 
